<svg xmlns="http://www.w3.org/2000/svg" viewBox="0 0 281.6 281.28"><defs><style>.cls-1{fill:#ee2e7b;}</style></defs><title>fut_owl</title><g id="Слой_2" data-name="Слой 2"><g id="Isolation_Mode" data-name="Isolation Mode"><path class="cls-1" d="M140.8,70.4A70.4,70.4,0,1,1,70.4,0a70.4,70.4,0,0,1,70.4,70.4"/><path class="cls-1" d="M281.6,70.4A70.4,70.4,0,1,1,211.2,0a70.4,70.4,0,0,1,70.4,70.4"/><path class="cls-1" d="M140.8,210.88a70.4,70.4,0,1,1-70.4-70.4,70.4,70.4,0,0,1,70.4,70.4"/><path class="cls-1" d="M281.6,210.88a70.4,70.4,0,1,1-70.4-70.4,70.4,70.4,0,0,1,70.4,70.4"/></g></g></svg>